<mxfile host="app.diagrams.net" agent="Mozilla/5.0 (Windows NT 10.0; Win64; x64) AppleWebKit/537.36 (KHTML, like Gecko) Chrome/139.0.0.0 Safari/537.36" version="28.1.0">
  <diagram name="페이지-1" id="n1wwaXoTv8X_fJlXBjik">
    <mxGraphModel dx="1412" dy="771" grid="1" gridSize="10" guides="1" tooltips="1" connect="1" arrows="1" fold="1" page="1" pageScale="1" pageWidth="827" pageHeight="1169" math="0" shadow="0">
      <root>
        <mxCell id="0" />
        <mxCell id="1" parent="0" />
        <mxCell id="Dtxo02y-Q6GTN7Kiz66H-6" value="Vnc2RtspServer" style="rounded=0;whiteSpace=wrap;html=1;labelPosition=center;verticalLabelPosition=top;align=center;verticalAlign=bottom;" vertex="1" parent="1">
          <mxGeometry x="90" y="330" width="820" height="380" as="geometry" />
        </mxCell>
        <mxCell id="Dtxo02y-Q6GTN7Kiz66H-2" value="RtspServer" style="rounded=0;whiteSpace=wrap;html=1;" vertex="1" parent="1">
          <mxGeometry x="110" y="370" width="120" height="60" as="geometry" />
        </mxCell>
        <mxCell id="Dtxo02y-Q6GTN7Kiz66H-3" value="H264FrameQueue&lt;br&gt;(P/C Pattern)" style="rounded=0;whiteSpace=wrap;html=1;" vertex="1" parent="1">
          <mxGeometry x="501" y="370" width="120" height="60" as="geometry" />
        </mxCell>
        <mxCell id="Dtxo02y-Q6GTN7Kiz66H-4" value="VNC Server" style="rounded=0;whiteSpace=wrap;html=1;" vertex="1" parent="1">
          <mxGeometry x="430" y="130" width="120" height="60" as="geometry" />
        </mxCell>
        <mxCell id="Dtxo02y-Q6GTN7Kiz66H-10" value="Update FrameBuffer" style="edgeStyle=orthogonalEdgeStyle;rounded=0;orthogonalLoop=1;jettySize=auto;html=1;entryX=1;entryY=0.5;entryDx=0;entryDy=0;dashed=1;" edge="1" parent="1" source="Dtxo02y-Q6GTN7Kiz66H-5" target="Dtxo02y-Q6GTN7Kiz66H-7">
          <mxGeometry relative="1" as="geometry" />
        </mxCell>
        <mxCell id="Dtxo02y-Q6GTN7Kiz66H-5" value="VNC Viewer Proxy" style="rounded=0;whiteSpace=wrap;html=1;" vertex="1" parent="1">
          <mxGeometry x="701" y="370" width="120" height="60" as="geometry" />
        </mxCell>
        <mxCell id="Dtxo02y-Q6GTN7Kiz66H-12" value="Push H.264(AnnexB)" style="edgeStyle=orthogonalEdgeStyle;rounded=0;orthogonalLoop=1;jettySize=auto;html=1;entryX=0.5;entryY=1;entryDx=0;entryDy=0;dashed=1;" edge="1" parent="1" source="Dtxo02y-Q6GTN7Kiz66H-7" target="Dtxo02y-Q6GTN7Kiz66H-3">
          <mxGeometry relative="1" as="geometry">
            <Array as="points">
              <mxPoint x="390" y="615" />
              <mxPoint x="390" y="490" />
              <mxPoint x="561" y="490" />
            </Array>
          </mxGeometry>
        </mxCell>
        <mxCell id="Dtxo02y-Q6GTN7Kiz66H-7" value="H264RtspEncoder" style="rounded=0;whiteSpace=wrap;html=1;align=center;labelPosition=center;verticalLabelPosition=top;verticalAlign=bottom;" vertex="1" parent="1">
          <mxGeometry x="430" y="560" width="301" height="110" as="geometry" />
        </mxCell>
        <mxCell id="Dtxo02y-Q6GTN7Kiz66H-8" value="H264 AutoEncoder" style="rounded=0;whiteSpace=wrap;html=1;" vertex="1" parent="1">
          <mxGeometry x="450" y="580" width="120" height="60" as="geometry" />
        </mxCell>
        <mxCell id="Dtxo02y-Q6GTN7Kiz66H-9" value="H264 Parser" style="rounded=0;whiteSpace=wrap;html=1;" vertex="1" parent="1">
          <mxGeometry x="590" y="580" width="120" height="60" as="geometry" />
        </mxCell>
      </root>
    </mxGraphModel>
  </diagram>
</mxfile>
